<svg id="svg" version="1.1" xmlns="http://www.w3.org/2000/svg" xmlns:xlink="http://www.w3.org/1999/xlink" width="400" height="334.1256366723259" viewBox="0, 0, 400,334.1256366723259"><g id="svgg"><path id="path0" d="M339.969 2.765 C 339.418 6.213,334.128 11.846,330.841 12.485 C 329.659 12.715,327.776 13.080,326.655 13.297 C 323.560 13.895,324.194 14.581,328.701 15.512 C 335.196 16.854,340.182 22.393,340.223 28.313 C 340.247 31.821,341.422 31.528,342.218 27.815 C 343.869 20.115,349.522 14.941,356.282 14.941 C 358.583 14.941,358.279 13.764,355.857 13.297 C 354.737 13.080,352.869 12.719,351.707 12.493 C 348.591 11.888,343.257 6.434,342.312 2.886 C 341.345 -0.746,340.537 -0.788,339.969 2.765 M307.348 31.751 C 306.739 44.060,304.267 52.478,299.282 59.220 L 297.864 61.138 287.302 50.681 C 266.073 29.663,260.956 29.802,230.565 52.224 C 208.413 68.569,208.442 68.519,216.132 76.528 L 220.305 80.873 203.027 98.162 L 185.749 115.450 173.854 115.450 L 161.959 115.450 144.681 98.162 L 127.403 80.873 131.576 76.528 C 139.266 68.519,139.295 68.569,117.143 52.224 C 94.997 35.885,91.932 34.474,82.033 36.068 C 66.362 38.592,48.505 61.800,62.234 61.800 C 64.438 61.800,65.416 61.108,71.233 55.433 C 82.787 44.162,86.551 43.748,98.688 52.413 L 105.423 57.221 63.426 99.223 C 40.327 122.324,21.234 141.002,20.996 140.731 C 14.634 133.460,10.863 126.515,10.881 122.105 C 10.906 115.946,12.101 114.410,33.207 93.383 C 51.664 74.996,52.971 73.534,52.971 71.293 C 52.971 67.580,51.405 65.874,47.994 65.874 C 45.144 65.874,45.042 65.964,24.673 86.418 C 0.158 111.034,0.340 110.769,0.340 121.902 C 0.340 131.461,0.474 131.721,16.978 154.073 C 32.593 175.221,32.719 175.291,40.922 167.212 L 44.832 163.360 47.331 165.860 L 49.831 168.359 46.347 172.043 C 17.056 203.014,31.589 256.046,72.222 266.460 C 74.406 267.020,76.252 267.575,76.325 267.695 C 76.398 267.814,77.126 270.051,77.944 272.666 C 81.217 283.128,90.011 293.414,99.708 298.123 L 104.584 300.491 104.591 311.027 C 104.601 328.115,110.710 335.749,122.581 333.509 C 127.241 332.630,134.465 327.151,134.465 324.496 C 134.465 322.125,141.041 324.103,143.299 327.154 C 150.154 336.415,164.358 335.686,169.518 325.806 C 170.974 323.018,176.734 323.018,178.190 325.806 C 183.350 335.686,197.554 336.415,204.409 327.154 C 207.270 323.288,212.396 322.385,213.981 325.467 C 219.679 336.544,236.242 336.315,241.470 325.087 C 243.095 321.595,243.111 321.361,243.117 300.150 L 243.124 278.739 247.812 277.531 C 252.506 276.322,258.952 272.929,262.139 269.990 C 263.295 268.924,265.030 268.292,267.572 268.009 C 280.578 266.562,294.329 259.507,294.329 254.281 C 294.329 249.451,290.001 247.539,285.229 250.261 C 281.216 252.549,276.639 254.695,274.404 255.336 L 272.608 255.851 273.995 250.536 C 275.376 245.244,275.400 245.210,279.457 242.580 C 299.462 229.610,302.516 199.030,285.257 184.508 L 283.302 182.863 286.700 179.547 L 290.097 176.231 294.179 180.637 C 307.194 194.690,309.764 216.335,300.452 233.470 C 295.777 242.072,301.002 249.791,307.102 243.294 C 322.342 227.058,319.450 191.169,301.360 172.043 L 297.877 168.359 300.377 165.860 L 302.876 163.360 306.786 167.212 C 314.992 175.294,315.118 175.225,330.730 154.059 C 347.267 131.638,347.368 131.443,347.368 121.902 C 347.368 111.755,346.353 109.878,334.215 97.587 L 324.958 88.214 326.655 86.839 C 332.653 81.981,342.202 79.172,355.348 78.398 C 364.838 77.839,364.109 76.740,354.247 76.740 C 327.236 76.740,310.519 60.287,309.201 32.404 C 308.669 21.134,307.887 20.859,307.348 31.751 M368.757 30.730 C 368.733 48.352,358.288 58.192,339.389 58.399 C 336.121 58.434,340.336 59.701,344.914 60.059 C 359.825 61.226,368.761 71.201,368.761 86.680 C 368.761 88.310,369.066 89.643,369.440 89.643 C 369.813 89.643,370.119 88.310,370.119 86.680 C 370.119 71.201,379.055 61.226,393.965 60.059 C 398.543 59.701,402.758 58.434,399.491 58.399 C 380.574 58.192,370.147 48.368,370.123 30.730 C 370.121 29.143,369.813 27.844,369.440 27.844 C 369.066 27.844,368.759 29.143,368.757 30.730 M268.251 48.261 C 271.222 49.783,289.624 68.203,289.070 69.100 C 287.355 71.875,272.276 76.740,265.392 76.740 L 261.782 76.740 252.037 66.978 L 242.293 57.216 249.054 52.388 C 257.962 46.029,262.142 45.130,268.251 48.261 M121.205 68.971 C 122.479 69.932,120.330 72.198,78.349 114.179 L 34.152 158.376 31.045 154.400 L 27.938 150.424 71.137 107.176 L 114.336 63.928 117.100 65.944 C 118.620 67.052,120.468 68.414,121.205 68.971 M316.662 154.349 L 313.561 158.379 269.514 114.336 C 245.288 90.112,225.477 70.139,225.489 69.951 C 225.501 69.763,227.258 68.325,229.394 66.756 L 233.277 63.902 276.520 107.110 L 319.763 150.319 316.662 154.349 M273.629 79.785 C 292.174 83.686,307.947 102.000,306.840 118.347 L 306.621 121.583 285.233 100.180 C 261.222 76.153,261.882 77.314,273.629 79.785 M135.658 104.758 L 151.440 120.551 117.991 153.995 L 84.542 187.439 68.594 171.480 L 52.645 155.520 56.189 151.977 L 59.733 148.433 67.428 156.025 C 79.393 167.830,86.733 169.583,95.003 162.610 C 103.373 155.553,101.577 146.251,89.478 133.987 L 81.891 126.298 86.262 121.888 L 90.633 117.477 98.797 125.605 C 110.684 137.439,117.286 139.029,125.564 132.050 C 133.964 124.966,132.291 115.828,120.387 103.775 L 112.456 95.745 115.795 92.355 C 117.631 90.490,119.301 88.964,119.505 88.964 C 119.708 88.964,126.977 96.071,135.658 104.758 M231.913 92.355 L 235.252 95.745 227.321 103.775 C 215.417 115.828,213.743 124.966,222.144 132.050 C 230.422 139.029,237.024 137.439,248.911 125.605 L 257.075 117.477 261.446 121.888 L 265.817 126.298 258.292 133.947 C 246.047 146.394,244.272 155.500,252.705 162.610 C 260.951 169.563,268.147 167.853,280.196 156.079 L 287.998 148.456 291.531 151.988 L 295.063 155.520 279.114 171.480 L 263.166 187.439 229.717 153.995 L 196.268 120.551 212.050 104.758 C 220.731 96.071,228.000 88.964,228.203 88.964 C 228.407 88.964,230.077 90.490,231.913 92.355 M335.501 115.834 C 338.465 121.938,337.349 126.362,330.495 135.665 L 326.358 141.280 317.628 132.609 L 308.897 123.939 309.334 119.185 C 310.133 110.495,311.900 104.775,315.594 98.922 L 317.282 96.249 325.721 104.661 C 330.363 109.288,334.764 114.316,335.501 115.834 M112.263 111.274 C 120.198 119.326,121.250 121.635,118.015 123.900 C 115.221 125.857,113.999 125.182,106.130 117.336 L 98.486 109.714 101.337 106.809 C 104.925 103.154,103.814 102.700,112.263 111.274 M246.371 106.809 L 249.221 109.714 241.578 117.336 C 233.709 125.182,232.487 125.857,229.693 123.900 C 226.458 121.635,227.510 119.326,235.445 111.274 C 243.894 102.700,242.783 103.154,246.371 106.809 M221.551 161.460 L 256.680 196.604 255.036 201.698 C 254.132 204.499,253.066 206.714,252.667 206.619 C 252.268 206.525,237.962 196.320,220.877 183.942 C 184.499 157.587,183.845 157.216,173.819 157.216 C 161.389 157.216,161.676 157.010,127.587 190.366 C 111.865 205.750,98.785 218.419,98.522 218.521 C 98.258 218.623,96.462 213.733,94.531 207.655 L 91.021 196.604 126.153 161.460 L 161.285 126.316 173.854 126.316 L 186.423 126.316 221.551 161.460 M81.703 141.834 C 89.490 149.737,90.313 151.453,87.606 154.160 C 85.076 156.690,83.638 155.942,75.570 147.896 L 67.926 140.274 70.777 137.370 C 74.365 133.714,73.254 133.260,81.703 141.834 M276.931 137.370 L 279.782 140.274 272.138 147.896 C 264.269 155.743,263.047 156.418,260.253 154.461 C 257.018 152.195,258.070 149.887,266.005 141.834 C 274.454 133.260,273.343 133.714,276.931 137.370 M181.714 169.632 C 193.106 175.443,195.437 189.711,186.462 198.686 C 172.745 212.403,150.083 197.939,156.870 179.800 C 160.578 169.889,172.586 164.975,181.714 169.632 M61.226 179.731 L 64.435 182.891 62.776 184.196 C 51.427 193.123,47.831 213.680,55.083 228.169 C 59.108 236.212,71.278 246.520,76.747 246.520 C 77.285 246.520,77.424 247.058,77.142 248.048 C 76.902 248.888,76.515 251.049,76.283 252.850 C 75.789 256.681,75.383 256.701,68.139 253.252 C 40.397 240.045,32.879 203.325,53.308 180.815 C 57.906 175.748,57.271 175.835,61.226 179.731 M217.488 195.246 L 230.701 204.754 227.914 205.505 C 218.862 207.945,215.645 210.553,187.436 238.310 L 163.328 262.033 162.895 255.804 C 161.417 234.535,146.067 218.685,124.088 215.736 L 118.126 214.936 131.390 202.151 C 139.106 194.714,144.763 189.744,144.915 190.269 C 145.058 190.765,145.546 192.547,145.998 194.228 C 153.980 223.904,197.786 220.774,202.603 190.184 C 203.019 187.545,203.565 185.466,203.817 185.563 C 204.069 185.659,210.221 190.017,217.488 195.246 M84.522 212.391 C 89.546 227.940,89.471 227.517,87.527 229.267 C 86.737 229.978,85.194 231.859,84.099 233.447 C 81.715 236.903,81.151 236.954,75.951 234.182 C 60.668 226.036,57.302 205.516,69.284 193.534 L 72.149 190.669 76.115 194.655 L 80.080 198.642 84.522 212.391 M279.876 195.076 C 288.154 205.549,287.647 219.165,278.617 228.919 C 274.464 233.403,274.441 233.402,272.689 228.523 C 271.180 224.322,269.434 221.385,265.770 216.886 L 262.929 213.398 265.271 206.020 C 269.429 192.916,274.918 188.803,279.876 195.076 M248.693 217.779 C 271.937 228.773,267.662 262.228,242.318 267.663 C 226.307 271.097,210.019 256.286,211.421 239.567 C 212.956 221.251,232.223 209.988,248.693 217.779 M129.996 228.164 C 152.606 235.946,159.547 264.011,143.188 281.499 C 122.438 303.680,85.920 288.218,87.041 257.725 C 87.842 235.950,109.438 221.088,129.996 228.164 M230.139 228.044 C 213.975 236.488,223.985 260.972,241.850 256.686 C 259.229 252.517,255.638 226.146,237.691 226.146 C 234.719 226.146,232.893 226.605,230.139 228.044 M241.087 238.370 C 243.724 241.007,241.427 246.520,237.691 246.520 C 235.817 246.520,232.937 243.582,232.937 241.671 C 232.937 237.804,238.335 235.618,241.087 238.370 M202.394 253.703 C 203.888 258.190,206.880 263.381,209.703 266.384 L 211.460 268.251 192.147 268.216 L 172.835 268.181 186.418 254.995 L 200.000 241.808 200.504 245.671 C 200.780 247.796,201.631 251.410,202.394 253.703 M113.433 244.525 C 97.764 251.096,102.525 274.608,119.525 274.608 C 139.849 274.608,140.563 244.617,120.253 243.982 C 117.425 243.893,114.355 244.138,113.433 244.525 M122.920 256.027 C 125.521 258.628,123.948 262.956,120.068 263.873 C 118.652 264.208,117.841 263.913,116.503 262.575 C 113.331 259.403,115.141 254.669,119.525 254.669 C 120.656 254.669,122.166 255.273,122.920 256.027 M176.570 296.095 L 176.570 313.073 173.854 313.073 L 171.138 313.073 171.138 296.095 L 171.138 279.117 173.854 279.117 L 176.570 279.117 176.570 296.095 M196.265 299.415 C 196.265 321.862,196.101 322.750,191.957 322.750 C 187.477 322.750,187.436 322.542,187.436 299.725 L 187.436 279.117 191.851 279.117 L 196.265 279.117 196.265 299.415 M211.885 296.095 L 211.885 313.073 209.508 313.073 L 207.131 313.073 207.131 296.095 L 207.131 279.117 209.508 279.117 L 211.885 279.117 211.885 296.095 M232.258 299.415 C 232.258 317.771,232.144 319.845,231.070 321.088 C 228.969 323.517,227.050 323.589,224.783 321.322 L 222.750 319.290 222.750 299.203 L 222.750 279.117 227.504 279.117 L 232.258 279.117 232.258 299.415 M158.990 321.448 C 157.357 323.081,154.527 323.123,152.779 321.542 C 151.525 320.407,151.443 319.384,151.443 304.884 L 151.443 289.435 155.688 285.332 L 159.932 281.229 160.113 300.687 C 160.283 319.096,160.223 320.215,158.990 321.448 M140.577 305.263 L 140.577 313.073 138.200 313.073 L 135.823 313.073 135.823 306.405 L 135.823 299.737 138.031 298.639 C 139.244 298.034,140.314 297.521,140.407 297.497 C 140.501 297.473,140.577 300.968,140.577 305.263 M124.958 311.088 L 124.958 319.290 122.925 321.322 C 118.178 326.069,115.450 322.412,115.450 311.300 L 115.450 302.886 120.204 302.886 L 124.958 302.886 124.958 311.088 " stroke="none" fill="#000000" fill-rule="evenodd"></path></g></svg>